<svg width="34" height="12" viewBox="0 0 34 12" fill="none" xmlns="http://www.w3.org/2000/svg">
<path d="M33.3701 5.66157C32.9312 5.22268 32.4923 4.78378 32.0534 4.34489C30.9671 3.25863 29.8699 2.17237 28.7727 1.08611C28.5313 0.844722 28.246 0.724027 27.8949 0.800833C27.5548 0.888612 27.3243 1.09709 27.2256 1.43723C27.1268 1.77737 27.2256 2.08459 27.478 2.33696C28.4435 3.30252 29.42 4.26808 30.3966 5.23365C30.4624 5.29948 30.5173 5.35434 30.6051 5.45309H30.2869C24.1204 5.45309 17.954 5.45309 11.7985 5.45309C11.7107 5.45309 11.6339 5.46407 11.5571 5.47504H1.74787C1.25412 5.47504 0.848145 5.88101 0.848145 6.37477C0.848145 6.86852 1.25412 7.2745 1.74787 7.2745H30.5721C30.5721 7.2745 30.5831 7.30742 30.5831 7.31839C30.5173 7.37325 30.4514 7.41714 30.3966 7.472C29.431 8.42659 28.4655 9.39215 27.4999 10.3467C27.1049 10.7417 27.0939 11.3013 27.478 11.6634C27.5986 11.7731 27.7523 11.839 27.8949 11.9158H27.873L28.2789 11.9048C28.4325 11.8061 28.6081 11.7293 28.7398 11.6086C30.2869 10.0834 31.823 8.55826 33.3591 7.03311C33.787 6.61616 33.7761 6.08949 33.3591 5.66157H33.3701Z" fill="#414042"/>
</svg>
